<?xml version="1.0" encoding="UTF-8" standalone="no"?>
<!-- Created with Inkscape (http://www.inkscape.org/) -->

<svg
   version="1.1"
   id="svg76"
   width="1920"
   height="1920"
   viewBox="0 0 1919.9999 1920"
   xmlns="http://www.w3.org/2000/svg"
   xmlns:svg="http://www.w3.org/2000/svg">
  <defs
     id="defs80" />
  <g
     id="g82">
    <g
       id="g262"
       transform="translate(5.1148295,-22.830717)">
      <path
         style="fill:#83b9a9;stroke-width:0.786885"
         d="m 461.59239,1934.493 -0.47763,-1.2447 v -99.87 -99.8701 l -64.32787,-0.01 -64.32787,-0.01 -7.47541,-1.1354 -7.47541,-1.1353 -7.08197,-2.06 -7.08196,-2.0601 -6.21107,-2.6905 -6.21107,-2.6903 -5.74763,-3.5824 -5.74763,-3.5823 -6.15937,-4.973 -6.15939,-4.973 -5.21341,-5.631 -5.21342,-5.631 -4.69941,-6.874 -4.69941,-6.8741 -3.29786,-6.574 -3.29785,-6.5738 -2.2082,-6.0163 -2.20819,-6.0162 -1.64731,-7.082 -1.64731,-7.082 -0.81508,-8.6557 -0.81508,-8.6557 -6.5e-4,-63.9345 -6.6e-4,-63.9279 H 134.58506 37.825864 l -0.814571,-1.5221 -0.814571,-1.522 v -23.6021 -23.602 l 1.236534,-1.2366 1.236534,-1.2365 h 96.33724 96.33724 v -54.6886 -54.6885 H 134.25571 37.167158 l -0.474473,-1.7705 -0.474474,-1.7705 0.0013,-23.2131 0.0013,-23.2131 0.622623,-0.9805 0.622623,-0.9805 96.742373,-0.1998 96.74238,-0.1999 v -54.6885 -54.6885 l -96.74238,-0.1999 -96.742373,-0.1998 -0.622623,-0.9805 -0.622623,-0.9805 -0.01205,-23.4615 -0.01212,-23.4616 0.814571,-1.522 0.814571,-1.5221 h 96.759197 96.75921 v -54.6885 -54.6885 H 135.00703 38.66979 l -1.236534,-1.2365 -1.236534,-1.2366 v -24.17984 -24.17988 l 0.944262,-0.94426 0.944262,-0.94426 h 96.629514 96.62951 V 902.16393 847.47541 H 134.58506 37.825864 l -0.814571,-1.52207 -0.814571,-1.522 v -23.31659 -23.31659 l 0.814571,-1.52199 0.814571,-1.52207 h 96.759196 96.75921 V 740.06557 685.37705 H 134.58506 37.825864 l -0.814571,-1.52204 -0.814571,-1.52204 0.01205,-23.46157 0.01205,-23.46156 0.622623,-0.98049 0.622623,-0.98048 96.742382,-0.19985 96.74238,-0.19984 0.20207,-54.88525 0.20208,-54.88524 h -97.1015 -97.101497 l -0.477631,-1.24469 -0.47763,-1.24468 0.01205,-23.73893 0.01205,-23.73892 0.622623,-0.98048 0.622623,-0.98048 96.742382,-0.19985 96.74238,-0.19984 0.4296,-69.2459 0.42959,-69.2459 1.42129,-7.47541 1.42128,-7.47541 2.32729,-7.31013 2.32728,-7.31013 2.28669,-5.0966 2.2867,-5.09661 3.30301,-5.69163 3.30301,-5.69163 4.24165,-5.66852 4.24164,-5.66853 6.75418,-6.75418 6.75418,-6.75419 7.56418,-5.01819 7.56417,-5.01819 7.08197,-3.52301 7.08197,-3.52302 6.56633,-2.06319 6.56634,-2.06319 6.41727,-1.28595 6.41727,-1.28596 66.68852,-0.32873 66.68853,-0.32873 V 132.2013 32.374707 l 1.23653,-1.236533 1.23654,-1.236535 h 23.1007 23.1007 l 1.23654,1.236535 1.23653,1.236533 v 99.883803 99.8838 l 52.52459,-0.20231 52.52459,-0.2023 0.19974,-100.28329 0.19974,-100.283293 0.98059,-0.62269 0.98059,-0.622689 23.25246,-0.01205 23.25246,-0.01205 0.94426,0.944263 0.94426,0.944262 V 131.96066 232.13115 h 52.72131 52.72132 V 131.96066 31.790164 l 0.94426,-0.944262 0.94426,-0.944263 23.25246,0.01205 23.25246,0.01205 0.98062,0.622689 0.98053,0.62269 0.19979,100.283292 0.19971,100.28329 52.5246,0.20231 52.52459,0.2023 V 132.2585 32.374702 l 1.23651,-1.236533 1.23659,-1.236534 h 23.10067 23.10067 l 1.23659,1.236534 1.23651,1.236533 v 99.883798 99.8838 l 52.52456,-0.2023 52.5246,-0.2023 0.1997,-100.28329 0.1998,-100.283297 0.9805,-0.62269 0.9807,-0.622689 23.2524,-0.01205 23.2525,-0.01205 0.9442,0.944263 0.9443,0.944262 V 131.96066 232.13115 h 52.7213 52.7213 V 131.96066 31.790164 l 0.9443,-0.944262 0.9443,-0.944263 23.2524,0.01205 23.2525,0.01205 0.9806,0.622689 0.9805,0.62269 0.1998,100.283292 0.1997,100.28329 52.5246,0.20231 52.5246,0.2023 V 132.2585 32.374702 l 1.2365,-1.236533 1.2366,-1.236534 22.9601,0.01205 22.9603,0.01205 0.9806,0.622689 0.9805,0.62269 0.1998,100.283296 0.1997,100.2833 66.4918,0.43632 66.4918,0.43632 7.0785,1.37191 7.0785,1.37189 7.0188,2.35151 7.0188,2.35149 6.3617,3.20304 6.3618,3.20304 6.295,4.14061 6.2951,4.1406 4.8383,4.24235 4.8382,4.24233 4.5421,5.09045 4.5421,5.09044 3.4198,4.6455 3.4199,4.6455 4.2851,7.98888 4.2852,7.98887 3.1142,9.41472 3.1143,9.41472 1.4035,7.47541 1.4037,7.47541 0.4296,69.2459 0.4296,69.2459 96.7423,0.19984 96.7425,0.19985 0.6226,0.98048 0.6226,0.98049 0.012,23.73891 0.012,23.73893 -0.4776,1.24468 -0.4777,1.24469 h -97.1014 -97.1015 l 0.202,54.88524 0.2021,54.88525 96.7424,0.19985 96.7424,0.19984 0.6226,0.98048 0.6226,0.98049 0.012,23.46156 0.012,23.46157 -0.8145,1.52204 -0.8146,1.52204 h -96.7592 -96.7592 v 54.68852 54.68853 h 96.7592 96.7592 l 0.8146,1.52207 0.8145,1.52199 v 23.31659 23.31659 l -0.8145,1.522 -0.8146,1.52207 h -96.7592 -96.7592 v 54.68852 54.68853 h 96.6295 96.6295 l 0.9443,0.94426 0.9442,0.94426 v 24.17988 24.17984 l -1.2365,1.2365 -1.2366,1.2366 h -96.3371 -96.3373 v 54.6885 54.6885 h 96.6295 96.6295 l 0.9443,0.9443 0.9442,0.9442 -0.012,24.0394 -0.012,24.0393 -0.6226,0.9805 -0.6226,0.9805 -96.7424,0.1998 -96.7424,0.1999 v 54.6885 54.6885 l 96.7424,0.1999 96.7424,0.1998 0.6226,0.9805 0.6226,0.9805 0.012,23.7389 0.012,23.7389 -0.4776,1.2447 -0.4776,1.2447 h -97.0962 -97.0961 v 54.6885 54.6885 h 96.3373 96.3371 l 1.2366,1.2366 1.2365,1.2365 v 23.6021 23.6021 l -0.8145,1.522 -0.8146,1.5221 h -96.7164 -96.7165 l -0.3097,69.836 -0.3097,69.8361 -1.2751,6.2951 -1.2751,6.2951 -2.0389,7.0819 -2.039,7.082 -4.2335,8.8363 -4.2336,8.8363 -4.9513,7.2949 -4.9513,7.2948 -7.8899,7.9063 -7.8899,7.9063 -6.3611,4.4492 -6.3611,4.4493 -5.8356,3.1443 -5.8356,3.1443 -8.2623,2.7413 -8.2623,2.7412 -5.9016,1.3845 -5.9017,1.3846 -67.6461,0.2764 -67.6463,0.2763 -0.604,0.9505 -0.6041,0.9504 -0.012,100.1311 -0.012,100.1312 h -24.7027 -24.7027 l -0.4776,-1.2447 -0.4777,-1.2447 v -99.8756 -99.8757 l -52.5245,0.2023 -52.5246,0.2023 -0.3935,100.7213 -0.3934,100.7213 h -24.7869 -24.7869 l -0.3934,-100.7213 -0.3935,-100.7213 h -52.3279 -52.3278 l -0.3935,100.7213 -0.3934,100.7213 -24.9836,0.2078 -24.9836,0.2078 v -99.8812 -99.881 l -0.4777,-1.2447 -0.4776,-1.2447 h -52.2437 -52.24363 v 99.87 99.8701 l -0.47764,1.2447 -0.47764,1.2447 H 954.8852 930.2667 l -0.47764,-1.2447 -0.47764,-1.2447 v -99.8756 -99.8757 l -52.52459,0.2023 -52.52459,0.2023 -0.39344,100.7213 -0.39344,100.7213 h -24.78689 -24.78688 l -0.39345,-100.7213 -0.39344,-100.7213 h -52.32787 -52.32787 l -0.39344,100.7213 -0.39344,100.7213 h -24.7873 -24.78688 l -0.39345,-100.7213 -0.39344,-100.7213 -52.52459,-0.2023 -52.52459,-0.2023 v 99.8757 99.8756 l -0.47763,1.2447 -0.47763,1.2447 h -24.61851 -24.61851 l -0.47763,-1.2447 z m 401.24563,-356.9848 0.44175,-1.7705 -0.27462,-129.8361 -0.27454,-129.836 -1.34015,-8.2574 -1.34006,-8.2574 -2.03056,-7.4803 -2.03056,-7.4803 -2.76078,-6.6886 -2.76079,-6.6885 -2.75796,-4.7213 -2.75803,-4.7213 -3.37353,-4.7213 -3.37362,-4.7213 -5.79084,-5.5767 -5.79077,-5.5767 -4.80708,-3.5238 -4.807,-3.5238 -6.36953,-3.3137 -6.36952,-3.3138 -8.36789,-2.7412 -8.36798,-2.7412 -7.20959,-1.1693 -7.20961,-1.1693 -194.7541,0.01 -194.7541,0.01 -1.79779,0.4816 -1.79779,0.4816 0.22401,7.5732 0.22403,7.5732 199.86886,0.3935 199.86885,0.3934 5.96385,1.7039 5.96384,1.7039 5.05259,2.1207 5.05251,2.1207 5.11475,3.0001 5.11476,3.0001 5.20776,4.3202 5.20769,4.3201 5.09468,6.7883 5.09477,6.7883 2.83397,5.6735 2.83404,5.6733 2.40575,7.2017 2.40574,7.2016 1.72061,8.9295 1.7206,8.9295 0.27163,131.6066 0.27156,131.6065 h 7.43417 7.43426 l 0.44176,-1.7705 z m 272.24818,0 0.4275,-1.7705 -0.2158,-88.918 -0.2159,-88.9181 -7.6722,-0.2252 -7.6721,-0.2252 v 90.9138 90.9137 h 7.4604 7.4605 z m 105.8318,-112.9564 v -114.7269 l -7.6721,0.092 -7.6721,0.092 -0.2022,113.6514 -0.2022,113.6514 0.3742,0.9836 0.3742,0.9836 h 7.5001 7.5001 z m 98.1684,46.858 0.2011,-67.4754 h -7.8732 -7.8733 v 67.1475 67.1476 l 0.552,0.552 0.5521,0.552 7.12,-0.2241 7.1202,-0.2242 z m -748.13557,-94.6745 5.11475,-1.16 7.86885,-3.915 7.86886,-3.9149 5.74964,-4.7806 5.74965,-4.7806 3.9196,-5.2561 3.9196,-5.256 3.48571,-7.0819 3.48571,-7.082 1.68264,-7.082 1.68264,-7.0819 -0.34944,-11.8033 -0.34945,-11.8033 -2.58155,-7.6541 -2.58155,-7.6541 -3.25087,-5.5295 -3.25086,-5.5293 -3.93442,-4.5736 -3.93443,-4.5734 -4.11739,-3.4889 -4.11739,-3.4889 -6.11212,-3.3438 -6.11212,-3.3438 -6.29508,-2.1192 -6.29508,-2.1193 -11.80328,-0.045 -11.80328,-0.045 -5.86282,1.8411 -5.86283,1.8412 -6.02694,3.0303 -6.02694,3.0302 -4.8534,3.8951 -4.8534,3.8951 -3.00074,3.4303 -3.00074,3.4302 -3.26828,4.8106 -3.26828,4.8105 -2.0581,4.6321 -2.0581,4.632 -1.89973,7.4553 -1.89973,7.4553 -0.60568,0.6056 -0.60568,0.6057 -64.48988,0.2014 -64.48988,0.2013 v 7.8689 7.8688 l 64.74027,0.2013 64.74027,0.2013 0.66566,1.7659 0.66566,1.7659 1.37518,5.9017 1.37517,5.9016 2.56375,5.6041 2.56373,5.6042 3.40204,5.0097 3.40203,5.0097 3.09049,3.3527 3.09049,3.3529 5.21181,3.8428 5.21181,3.8429 5.55519,2.7808 5.5552,2.7807 4.31149,1.2533 4.31151,1.2535 4.69068,0.7323 4.69069,0.7324 7.08197,-0.3825 7.08196,-0.3824 5.11476,-1.16 z m 358.44818,-297.82 0.50833,-0.8225 v -7.2431 -7.2431 H 665.18319 380.45902 l -0.22931,7.0197 -0.22933,7.0196 0.40135,1.046 0.40134,1.0458 h 284.04384 284.04386 z m -73.4791,-166.44147 8.82641,-1.23108 8.70877,-2.25781 8.70886,-2.25789 5.32744,-2.01851 5.32745,-2.01852 6.47583,-3.2485 6.47583,-3.24858 7.08197,-4.81778 7.08197,-4.81778 6.58418,-6.29509 6.58426,-6.29508 4.98311,-6.68852 4.98319,-6.68853 3.50022,-6.68852 3.50022,-6.68853 2.76134,-7.47541 2.76142,-7.47541 1.99625,-9.04918 1.99633,-9.04918 0.83047,-7.64112 0.83048,-7.64113 v -56.19694 -56.19696 l 0.98361,-0.75323 0.98361,-0.75322 4.72131,-1.00083 4.72131,-1.00083 5.32532,-2.24755 5.32533,-2.24754 5.2976,-3.47462 5.2977,-3.47462 4.5044,-4.07496 4.5044,-4.07496 4.6534,-6.95682 4.6534,-6.95682 2.4409,-6.32957 2.4409,-6.32957 1.28,-7.32436 1.2801,-7.32435 -0.4457,-8.26229 -0.4455,-8.2623 -1.6498,-6.19584 -1.6499,-6.19583 -2.2348,-4.92852 -2.2346,-4.92852 -3.3866,-5.00679 -3.3866,-5.00679 -4.3593,-4.58865 -4.3593,-4.58864 -5.6046,-3.74858 -5.6045,-3.74858 -6.10636,-2.54206 -6.1063,-2.54206 -5.22303,-1.10706 -5.22295,-1.10704 -8.33312,-0.0137 -8.33319,-0.0137 -6.22419,1.56339 -6.22426,1.56339 -8.02465,3.95555 -8.02466,3.95556 -6.6,6.24749 -6.6,6.24747 -3.70096,5.51613 -3.70088,5.51613 -2.02339,4.55352 -2.0234,4.5535 -1.88058,7.37959 -1.8805,7.37959 v 9.29028 9.29028 l 1.17459,5.58388 1.17466,5.58388 2.20871,5.68068 2.20871,5.68068 4.17135,6.49728 4.17136,6.49728 6.20475,5.76434 6.20475,5.76433 6.25361,3.53194 6.25361,3.53194 5.36404,1.72682 5.36396,1.72682 3.34427,0.80503 3.34426,0.80504 -0.0142,57.21557 -0.0142,57.21557 -1.14925,8.08415 -1.14916,8.08422 -1.2347,4.89938 -1.23463,4.89947 -1.639,5.11475 -1.63893,5.11475 -3.45906,6.95922 -3.45907,6.95921 -3.2485,4.84407 -3.24842,4.84406 -7.2635,7.23762 -7.2635,7.23761 -6.75408,4.40254 -6.75407,4.40255 -5.82468,2.6544 -5.82476,2.6544 -7.48517,2.46932 -7.48509,2.4694 -7.37044,1.71093 -7.37044,1.711 -247.08197,0.41036 -247.08197,0.41036 -0.22931,7.01973 -0.22932,7.01964 0.40134,1.04593 0.40134,1.04585 h 243.14519 243.14516 l 8.82649,-1.23108 z M 1229.2759,832.584 l 5.9664,-1.52593 5.0018,-2.52197 5.0018,-2.52196 4.4198,-2.99804 4.4198,-2.99795 4.7229,-4.72289 4.7228,-4.7228 2.9299,-4.41419 2.9301,-4.41427 2.9962,-6.44577 2.9962,-6.44577 1.3172,-5.90164 1.3172,-5.90164 0.6177,-1.18033 0.6177,-1.18033 125.029,-0.39344 125.0291,-0.39344 v -7.86885 -7.86886 l -125.2818,-0.19913 -125.2818,-0.19913 -0.7519,-2.94841 -0.7519,-2.94841 -0.5449,-2.7541 -0.5449,-2.7541 -2.3185,-6.06575 -2.3185,-6.06574 -3.9603,-6.06657 -3.9603,-6.06658 -4.4383,-4.65305 -4.4381,-4.65304 -5.6046,-3.74858 -5.6046,-3.74857 -5.8212,-2.42085 -5.821,-2.42083 -6.6478,-1.34481 -6.6478,-1.34481 -8.6965,0.42073 -8.6965,0.42074 -5.5082,1.73554 -5.5082,1.73554 -5.7101,2.81644 -5.7102,2.81646 -5.3062,4.02608 -5.3062,4.02609 -5.1341,6.37281 -5.1341,6.37282 -2.8861,5.78043 -2.8861,5.78042 -2.0418,7.07415 -2.0419,7.07414 -0.4568,8.27012 -0.4568,8.27012 1.2849,7.34856 1.285,7.34857 2.2748,5.85851 2.2748,5.85844 3.2451,5.46224 3.2451,5.46225 4.4508,4.80739 4.4508,4.8074 4.4332,3.41131 4.4331,3.41122 5.0596,2.73049 5.0595,2.7305 5.139,1.66701 5.139,1.66702 4.697,0.73692 4.6971,0.73699 7.5237,-0.3445 7.5236,-0.34449 z m -654.23197,-139.14138 0.22425,-8.06557 h -97.6013 -97.6013 v 7.80328 7.80327 l 0.9836,0.39853 0.98361,0.39852 96.39345,-0.13623 96.39344,-0.13622 z m 953.70867,-96.86469 1.0149,-0.64388 -0.228,-7.40965 -0.228,-7.40965 -91.4754,-0.2 -91.4754,-0.19999 v 7.74098 7.74098 l 0.5246,0.52459 0.5245,0.52459 90.164,-0.012 90.1639,-0.012 1.0149,-0.64387 z m -898.91531,-22.62933 1.24468,-0.47763 v -7.78708 -7.78708 l -125.31147,0.19913 -125.31148,0.19914 -0.22798,7.40965 -0.22799,7.40965 1.01487,0.64388 1.01487,0.64387 123.27991,0.012 123.27991,0.012 1.24468,-0.47763 z"
         id="path266" />
      <path
         style="fill:#5f6d7c;stroke-width:0.786885"
         d="m 463.22461,1934.4377 -0.53608,-0.536 V 1833.7514 1733.601 l -0.98361,-0.6365 -0.9836,-0.6366 -68.45902,-0.4545 -68.45902,-0.4544 -5.43044,-1.3289 -5.43045,-1.3289 -7.15972,-2.3938 -7.15972,-2.3938 -6.65608,-3.5351 -6.65608,-3.5352 -6.30527,-4.4844 -6.30527,-4.4845 -7.10422,-7.0927 -7.10422,-7.0929 -4.99701,-7.0711 -4.99701,-7.0711 -3.79936,-7.8689 -3.79936,-7.8689 -1.97168,-5.9016 -1.97168,-5.9016 -1.7815,-7.8689 -1.7815,-7.8688 -0.26931,-70.3842 -0.26932,-70.3841 -0.85126,-1.0257 -0.85126,-1.0257 H 134.46103 37.770492 v -24.7838 -24.7838 l 97.377048,-0.1998 97.37705,-0.1998 0.20447,-55.082 0.20445,-55.082 -1.33846,-0.9836 -1.33846,-0.9836 H 134.00233 37.748072 l 0.207931,-24.5901 0.207932,-24.5902 97.180325,-0.3934 97.18033,-0.3935 0.20447,-55.0819 0.20445,-55.082 -1.33846,-0.9836 -1.33846,-0.9836 H 134.01354 37.770492 v -24.3935 -24.3934 h 96.690538 96.69053 l 0.88863,-1.0707 0.88861,-1.0707 -0.2021,-54.9949 -0.20211,-54.9949 -97.37705,-0.1997 -97.377048,-0.1998 V 983.21004 958.42623 H 134.4 231.02951 l 0.94426,-0.94426 0.94427,-0.94427 v -54.37377 -54.37377 l -0.94427,-0.94426 -0.94426,-0.94426 H 134.4 37.770492 V 821.11475 796.32787 H 134.4 231.02951 l 0.94426,-0.94426 0.94427,-0.94427 V 740.06557 685.6918 l -0.94427,-0.94426 -0.94426,-0.94426 H 134.38879 37.748072 l 0.207931,-24.59017 0.207932,-24.59016 97.180325,-0.39344 97.18033,-0.39345 0.20447,-55.08196 0.20445,-55.08197 -1.33846,-0.98361 -1.33846,-0.9836 H 134.00233 37.748072 l 0.207931,-24.59017 0.207932,-24.59016 97.180325,-0.39344 97.18033,-0.39345 0.4396,-71.21311 0.43961,-71.21312 1.73229,-7.632 1.7323,-7.63199 2.44363,-6.92538 2.44363,-6.92538 3.14135,-6.29508 3.14136,-6.29508 4.41018,-6.68853 4.41017,-6.68852 9.07884,-9.0729 9.07885,-9.07289 5.7934,-3.82327 5.7934,-3.82328 7.23844,-3.68531 7.23843,-3.68531 6.6403,-2.1106 6.64029,-2.11059 5.5082,-1.32345 5.50819,-1.32346 68.45902,-0.44349 68.45902,-0.44348 0.1997,-100.91804 0.1997,-100.91803 h 23.99702 23.99702 v 99.87007 99.87007 l 0.47763,1.24468 0.47763,1.24469 h 53.00289 53.00287 l 0.81458,-1.52204 0.81457,-1.52204 V 131.06812 31.47541 h 23.60655 23.60656 V 131.6459 231.81639 l 0.94426,0.94427 0.94427,0.94426 h 52.40655 52.40656 l 0.94426,-0.94426 0.94427,-0.94427 V 131.6459 31.47541 h 23.60655 23.60656 v 99.59271 99.59272 l 0.81459,1.52204 0.81458,1.52204 h 53.00286 53.00286 l 0.47764,-1.24469 0.47764,-1.24468 V 131.34548 31.47541 h 23.99701 23.99701 l 0.19971,100.91803 0.19971,100.91804 h 53.5082 53.5082 l 0.3934,-100.72132 0.3935,-100.721308 23.8033,-0.208259 23.8032,-0.208259 V 131.63437 231.81639 l 0.9443,0.94427 0.9443,0.94426 h 52.4065 52.4066 l 0.9442,-0.94426 0.9443,-0.94427 V 131.6459 31.47541 h 23.6066 23.6065 v 99.59271 99.59272 l 0.8146,1.52204 0.8146,1.52204 h 52.2358 52.2358 l 1.2447,-0.47763 1.2447,-0.47764 V 132.101 31.452334 l 23.8033,0.208259 23.8032,0.208259 0.3935,100.721308 0.3934,100.72132 68.0656,0.43712 68.0656,0.43712 7.8239,1.77399 7.824,1.77399 7.1268,2.75091 7.1269,2.75091 5.1148,2.83978 5.1147,2.83978 5.8789,3.94611 5.8788,3.94611 7,6.74389 7,6.74389 4.9649,6.61118 4.965,6.61118 4.3124,8.33964 4.3124,8.33964 2.426,6.92538 2.4261,6.92538 1.7322,7.63199 1.7323,7.632 0.4396,71.21312 0.4396,71.21311 97.1804,0.39345 97.1803,0.39344 0.2079,24.59016 0.2079,24.59017 h -96.2542 -96.2542 l -1.3385,0.9836 -1.3385,0.98361 0.2045,55.08197 0.2044,55.08196 97.1804,0.39345 97.1803,0.39344 0.2079,24.59016 0.2079,24.59017 h -96.6407 -96.6407 l -0.9443,0.94426 -0.9442,0.94426 v 54.37377 54.37377 l 0.9442,0.94427 0.9443,0.94426 H 1775.3705 1872 v 24.78688 24.78689 h -96.6295 -96.6295 l -0.9443,0.94426 -0.9442,0.94426 v 54.37377 54.37377 l 0.9442,0.94427 0.9443,0.94426 H 1775.3705 1872 v 24.78381 24.78386 l -97.377,0.1998 -97.3771,0.1997 -0.2021,54.9949 -0.2021,54.9949 0.8886,1.0707 0.8887,1.0707 H 1775.3095 1872 v 24.3934 24.3935 h -96.243 -96.243 l -1.3385,0.9836 -1.3385,0.9836 0.2045,55.082 0.2044,55.0819 97.1804,0.3935 97.1803,0.3934 0.2079,24.5902 0.2079,24.5901 h -96.2542 -96.2542 l -1.3385,0.9836 -1.3385,0.9836 0.2045,55.082 0.2044,55.082 97.3771,0.1998 97.377,0.1998 v 24.7838 24.7838 h -96.6905 -96.6905 l -0.8513,1.0257 -0.8512,1.0257 -0.2694,70.3841 -0.2693,70.3842 -1.7815,7.8688 -1.7815,7.8689 -1.9717,5.9016 -1.9717,5.9016 -3.7993,7.8689 -3.7994,7.8689 -4.997,7.0711 -4.997,7.0711 -7.1042,7.0929 -7.1043,7.0927 -6.3052,4.4845 -6.3053,4.4844 -6.656,3.5352 -6.6561,3.5351 -7.1598,2.3938 -7.1597,2.3938 -5.4304,1.3324 -5.4305,1.3324 -67.6721,0.2539 -67.6721,0.2539 -1.7675,0.408 -1.7675,0.408 -0.1997,100.9038 -0.1998,100.9038 h -23.6065 -23.6066 l -0.1952,-100.3279 -0.1952,-100.3279 -1.3322,-0.9836 -1.3323,-0.9836 h -51.7278 -51.7278 l -1.2366,1.2365 -1.2365,1.2366 v 100.2834 100.2834 l -23.4098,-0.2085 -23.4099,-0.2084 -0.1952,-100.3279 -0.1952,-100.3279 -1.3322,-0.9836 -1.3323,-0.9836 h -51.6336 -51.6336 l -1.3323,0.9836 -1.3322,0.9836 -0.1952,100.3279 -0.1952,100.3279 h -23.6066 -23.6065 l -0.1997,-100.6767 -0.1997,-100.6768 -0.9807,-0.6227 -0.9806,-0.6227 -52.0348,-0.012 -52.03476,-0.012 -0.88021,1.0606 -0.88021,1.0606 -0.19979,100.2508 -0.19971,100.2509 H 954.88526 931.2787 l -0.19523,-100.3278 -0.19522,-100.3279 -1.3322,-0.9836 -1.33227,-0.9836 h -51.7278 -51.72779 l -1.23659,1.2365 -1.23651,1.2366 v 100.2833 100.2834 l -23.40983,-0.2084 -23.40984,-0.2085 -0.19523,-100.3278 -0.19523,-100.3279 -1.33222,-0.9836 -1.33221,-0.9836 h -51.63364 -51.63363 l -1.33221,0.9836 -1.33222,0.9836 -0.19523,100.3279 -0.19523,100.3278 h -23.21312 -23.21311 l -0.39344,-100.5533 -0.39345,-100.5534 -1.18032,-0.746 -1.18033,-0.7461 -51.58731,-0.012 -51.58731,-0.012 -1.33221,0.9836 -1.33222,0.9836 -0.19523,100.3278 -0.19523,100.3279 -23.2672,0.2082 -23.2672,0.2082 -0.53608,-0.5361 z M 1562.3607,983.21311 V 352.91803 H 954.88526 347.40984 l -0.20103,629.5082 -0.20104,629.50817 0.37325,0.9841 0.37326,0.9842 607.30323,-0.1973 607.30319,-0.1972 z m -1181.77053,595.54099 -0.52459,-0.5246 v -109.2459 -109.2459 h 64.91803 64.91804 v 1.4256 1.4255 l 1.53744,5.8698 1.53744,5.8698 2.05456,4.6457 2.05457,4.6457 3.53616,5.4664 3.53616,5.4664 4.03444,4.2658 4.03443,4.2658 5.16527,3.8074 5.16526,3.8075 4.72132,2.3635 4.72131,2.3633 5.50819,1.7554 5.5082,1.7553 10.22951,0.3763 10.22951,0.3765 5.75796,-1.2233 5.75797,-1.2232 6.04923,-2.6154 6.04925,-2.6153 4.70201,-3.1208 4.70201,-3.1209 4.99637,-4.6737 4.99638,-4.6737 4.64893,-7.0568 4.64894,-7.0568 2.31146,-5.9938 2.31146,-5.9938 1.33062,-7.0626 1.33061,-7.0626 -0.40329,-9.4426 -0.40329,-9.4426 -2.05623,-6.9219 -2.05622,-6.922 -2.46117,-4.8813 -2.46118,-4.8814 -3.19045,-4.7213 -3.19046,-4.7213 -4.37398,-4.374 -4.37398,-4.374 -5.01884,-3.3959 -5.01884,-3.3959 -5.60411,-2.5637 -5.60411,-2.5637 -5.5082,-1.4697 -5.5082,-1.4697 -10.22951,0.051 -10.2295,0.051 -5.11476,1.3623 -5.11475,1.3622 -7.86885,3.8944 -7.86886,3.8945 -5.57717,4.6383 -5.57718,4.6383 -4.08883,5.3983 -4.08882,5.3984 -3.53693,7.0819 -3.53693,7.082 -1.74789,7.269 -1.74789,7.2689 -64.72705,0.01 -64.72705,0.01 0.20246,-50.9508 0.20246,-50.9508 h 200.2623 200.2623 l 6.28076,1.8181 6.28084,1.8182 6.40288,3.0004 6.40289,3.0005 4.62775,3.1458 4.62783,3.1459 5.90305,6.1995 5.90298,6.1994 3.02156,4.57 3.02156,4.5698 2.65118,5.738 2.65109,5.738 2.02977,7.0036 2.02977,7.0036 1.29797,6.2951 1.29804,6.2951 0.26589,132.7868 0.26589,132.7869 H 613.53006 381.11476 l -0.52459,-0.5246 z m 483.78511,-0.459 -0.36221,-0.9836 -0.24834,-133.3771 -0.24826,-133.377 -1.34266,-6.6885 -1.34259,-6.6886 -2.40196,-8.2623 -2.40197,-8.2623 -3.4069,-7.2106 -3.4069,-7.2107 -3.72692,-5.7729 -3.72693,-5.773 -6.78145,-6.9497 -6.78146,-6.9498 -5.2187,-3.8756 -5.21862,-3.8756 -6.84016,-3.4903 -6.84016,-3.4902 -6.03958,-1.9908 -6.0395,-1.9908 -4.72131,-1.3985 -4.72131,-1.3985 -201.04919,-0.3935 -201.04918,-0.3934 -0.20283,-48.3432 -0.20282,-48.3433 0.98971,-0.6283 0.98971,-0.6283 282.98563,-0.012 282.9856,-0.012 0.75321,0.9836 0.75329,0.9836 1.00792,4.7213 1.00792,4.7213 1.87239,5.0017 1.8724,5.0017 3.74148,6.3388 3.74148,6.3388 5.5082,5.6472 5.50819,5.6472 5.01884,3.3724 5.01883,3.3723 5.60412,2.5637 5.60412,2.5638 5.24179,1.2922 5.2419,1.2922 6.168,0.4629 6.168,0.463 7.3243,-1.2769 7.3244,-1.277 6.072,-2.3416 6.0721,-2.3416 6.0106,-3.9459 6.0106,-3.9459 4.6907,-4.6185 4.6907,-4.6184 3.1388,-4.6272 3.1389,-4.6272 2.4612,-4.8814 2.4612,-4.8813 2.0479,-6.9219 2.0481,-6.922 0.4291,-8.8437 0.4293,-8.8437 -0.9628,-5.9681 -0.9627,-5.968 -1.7874,-5.2538 -1.7873,-5.2538 -2.1895,-4.3279 -2.1896,-4.3278 -3.2006,-4.7214 -3.2008,-4.7213 -5.2071,-5.1147 -5.2071,-5.1148 -7.0113,-4.155 -7.0113,-4.1549 -6.2286,-1.9677 -6.2287,-1.9676 -5.9811,-0.8426 -5.9809,-0.8427 -5.9016,0.5132 -5.9017,0.5133 -5.0301,1.1552 -5.03006,1.1552 -6.65004,3.1163 -6.65005,3.1163 -4.91866,3.5099 -4.91866,3.5099 -4.1908,4.5722 -4.19079,4.5723 -3.46159,5.3368 -3.46166,5.3368 -2.00042,4.4993 -2.00042,4.4992 -1.79969,7.082 -1.7996,7.082 -284.53891,0.1978 -284.53887,0.1977 v -73.1813 -73.18144 l 240.19672,-0.008 240.19673,-0.008 8.73191,-0.77303 8.73198,-0.77304 8.03623,-1.61107 8.0363,-1.61099 8.25128,-2.70295 8.25127,-2.70287 6.64462,-3.11379 6.6447,-3.11386 6.89327,-4.48666 6.89319,-4.48666 5.7419,-4.81401 5.74191,-4.81401 4.95997,-5.90164 4.95997,-5.90163 3.27541,-4.83148 3.27541,-4.83155 3.53367,-7.11156 3.53374,-7.11155 2.70681,-8.12247 2.70673,-8.12254 1.56621,-7.86885 1.56622,-7.86886 0.83898,-8.5957 0.83897,-8.59569 v -54.47284 -54.47287 l 5.81996,-1.29482 5.81997,-1.29482 6.55589,-3.17037 6.556,-3.17038 5.1828,-3.84219 5.1828,-3.84218 3.9213,-4.16505 3.9214,-4.16505 2.4162,-3.54099 2.4163,-3.54098 2.7669,-5.5082 2.7669,-5.50819 1.5752,-5.11476 1.5752,-5.11475 0.958,-7.39345 0.9581,-7.39346 -0.5184,-5.98359 -0.5183,-5.9836 -1.5606,-6.19351 -1.5607,-6.19351 -2.0145,-4.82289 -2.0144,-4.82288 -4.2054,-6.34892 -4.2054,-6.34891 -5.787,-5.49704 -5.7869,-5.49704 -4.721,-2.86781 -4.721,-2.8678 -6.11736,-2.44955 -6.11748,-2.44955 -5.91526,-1.13177 -5.91517,-1.13177 -5.63575,0.006 -5.63567,0.006 -5.0367,0.81723 -5.03669,0.81723 -5.5108,1.92536 -5.51079,1.92535 -5.19022,2.8428 -5.19021,2.84281 -5.38238,4.33591 -5.38229,4.33592 -4.72659,6.3747 -4.72658,6.37472 -2.67266,5.30723 -2.67265,5.30723 -2.11271,6.9154 -2.11271,6.9154 v 12.59016 12.59017 l 2.1146,6.9219 2.11452,6.9219 2.46122,4.88138 2.46114,4.88137 2.9516,4.32787 2.95153,4.32787 5.79321,5.59165 5.79321,5.59164 4.62625,2.9566 4.62626,2.9566 3.63604,1.63744 3.63604,1.63744 7.08196,2.06046 7.08197,2.06047 0.23386,49.91779 0.23394,49.91778 -0.84519,11.40984 -0.84527,11.40983 -1.53097,7.29474 -1.53096,7.29474 -2.42715,7.26264 -2.42707,7.26264 -3.11126,5.78108 -3.11119,5.78109 -2.6987,4.06576 -2.69878,4.06584 -4.51963,4.99436 -4.51964,4.99436 -6.85928,5.30124 -6.85927,5.30117 -7.1716,3.70395 -7.17151,3.70402 -9.41721,3.09231 -9.41721,3.0923 -8.86607,1.77954 -8.86607,1.77954 -243.14754,0.22292 -243.14755,0.22285 -1.77309,-0.43224 -1.77309,-0.43223 0.19932,-116.24664 0.19932,-116.24552 97.96722,-0.39345 97.96721,-0.39344 v -9.04918 -9.04918 l -97.96721,-0.39344 -97.96722,-0.39345 V 629.5082 575.60656 l 124.90244,-0.19915 124.90243,-0.19914 0.47773,2.16635 0.47772,2.16636 1.14708,4.32787 1.14707,4.32787 1.66819,4.32787 1.6682,4.32787 1.98764,3.54098 1.98764,3.54099 4.3063,5.78334 4.30631,5.78336 4.5878,3.818 4.58779,3.818 5.31627,3.15205 5.31628,3.15206 5.11475,1.90632 5.11476,1.90634 5.62302,0.99263 5.62303,0.99264 9.32779,-0.42501 9.3278,-0.42501 5.50819,-1.74392 5.5082,-1.74392 4.72131,-2.36311 4.72131,-2.3631 4.75854,-3.37415 4.75853,-3.37415 4.68409,-5.00747 4.68409,-5.00746 3.12085,-4.70201 3.12085,-4.70201 2.65458,-6.13999 2.65457,-6.14 1.58492,-7.63442 1.58491,-7.63442 -0.41234,-9.44263 -0.41235,-9.44262 -2.06553,-7.01987 -2.06553,-7.01986 -2.78475,-5.5703 -2.78475,-5.5703 -4.18581,-5.57928 -4.18581,-5.57928 -4.20699,-3.53978 -4.20698,-3.53977 -3.54099,-2.38289 -3.54098,-2.38289 -4.85616,-2.44536 -4.85616,-2.44536 -5.76679,-1.60042 -5.76679,-1.60042 -7.47541,-0.47749 -7.47541,-0.4775 -7.26387,1.26851 -7.26388,1.2685 -5.31271,2.12683 -5.31272,2.12682 -6.70209,4.50653 -6.70211,4.50652 -4.4299,4.58239 -4.42989,4.58237 -2.85112,4.22283 -2.85112,4.22283 -2.76088,5.61324 -2.76087,5.61324 -1.87825,7.47541 -1.87825,7.47541 -125.19814,0.19913 -125.19815,0.19913 0.20025,-84.78929 0.20025,-84.7893 h 574.42624 574.42624 l 0.1999,96.19672 0.1998,96.19672 h -91.5789 -91.5789 l -0.9117,1.09849 -0.9117,1.09849 0.2252,8.14741 0.2251,8.14741 92.0656,0.39345 92.0656,0.39344 0.2005,78.8693 0.2005,78.86931 -1.7743,0.42807 -1.7742,0.42807 -123.1254,-0.21541 -123.1253,-0.21541 -1.7472,-6.83017 -1.7471,-6.83017 -1.774,-4.18622 -1.7741,-4.18622 -3.1896,-5.41849 -3.1895,-5.41847 -5.3596,-5.76297 -5.3596,-5.76296 -3.7946,-2.78549 -3.7946,-2.78548 -6.1901,-3.0941 -6.19,-3.0941 -5.5991,-1.54804 -5.5991,-1.54805 -6.5976,-0.54349 -6.5976,-0.54351 -6.4458,0.88871 -6.4457,0.88869 -5.5328,1.88184 -5.5329,1.88185 -5.5171,2.89912 -5.517,2.89912 -5.3118,4.46117 -5.3117,4.46118 -3.5533,4.42535 -3.5533,4.42534 -2.6396,4.37701 -2.6397,4.37701 -1.9187,4.75014 -1.9187,4.75014 -1.6036,6.09219 -1.6035,6.09219 -0.087,9.44262 -0.087,9.44262 0.9882,4.72131 0.9882,4.72132 1.2382,3.93442 1.2382,3.93443 2.6009,5.30793 2.601,5.30794 2.765,4.16569 2.765,4.16561 5.345,5.24593 5.345,5.24593 3.1475,2.22972 3.1476,2.22979 3.541,2.00286 3.5409,2.00286 4.3279,1.68976 4.3279,1.68983 5.1147,1.18254 5.1148,1.18245 h 8.6557 8.6558 l 5.261,-1.11502 5.261,-1.11501 4.7944,-1.93653 4.7945,-1.9366 4.3781,-2.63969 4.3782,-2.63968 5.3429,-4.48501 5.343,-4.48501 4.0617,-5.35106 4.0618,-5.35105 3.4862,-7.08197 3.4862,-7.08197 1.6957,-7.27869 1.6958,-7.27869 h 125.0133 125.0132 l -0.1974,401.50824 -0.1975,401.5082 -94.2295,0.1998 -94.2295,0.2 v -67.518 -67.5179 l -0.9443,-0.9443 -0.9442,-0.9442 h -7.5541 -7.5541 l -0.9443,0.9442 -0.9443,0.9443 v 67.5147 67.5148 h -39.7377 -39.7377 v -114.855 -114.8548 l 3.3443,-0.8606 3.3442,-0.8607 3.9345,-1.2464 3.9344,-1.2465 4.7213,-2.3588 4.7213,-2.3588 4.3364,-2.9414 4.3363,-2.9413 5.1653,-5.4755 5.1654,-5.4756 3.6435,-5.8457 3.6435,-5.8457 1.94,-5.1542 1.9401,-5.1543 1.2426,-6.016 1.2427,-6.0161 v -8.6375 -8.6374 l -1.1412,-5.363 -1.141,-5.3629 -1.516,-4.3657 -1.516,-4.3657 -1.7745,-3.5032 -1.7745,-3.5031 -3.9494,-5.7344 -3.9494,-5.7345 -4.4059,-4.0394 -4.4059,-4.0393 -5.7375,-3.7554 -5.7376,-3.7553 -6.0657,-2.3232 -6.0658,-2.3232 -4.7213,-0.982 -4.7213,-0.982 -7.8803,0.013 -7.8803,0.013 -6.5485,1.6975 -6.5486,1.6973 -4.9577,2.2481 -4.9579,2.248 -5.0068,3.3685 -5.0068,3.3686 -5.5082,5.6071 -5.5082,5.6071 -3.8198,6.4154 -3.8199,6.4154 -1.9286,5.3136 -1.9288,5.3136 -1.1367,5.4036 -1.1367,5.4036 0.01,9.1944 0.01,9.1945 1.5538,6.4812 1.5538,6.4812 2.0728,4.9287 2.0728,4.9285 3.518,5.4414 3.5179,5.4413 4.4565,4.6837 4.4565,4.6837 4.7213,3.356 4.7213,3.3559 4.7213,2.3439 4.7213,2.3439 3.9344,1.2465 3.9345,1.2465 3.3442,0.8606 3.3443,0.8606 v 114.8616 114.8615 l -43.4754,-0.2033 -43.4754,-0.2034 -0.3935,-91.2787 -0.3934,-91.2787 h -8.6558 -8.6557 l -0.2,91.4754 -0.2,91.4754 H 991.45213 864.7422 l -0.3622,-0.9836 z"
         id="path264" />
    </g>
  </g>
</svg>
